<?xml version="1.0" encoding="utf-8"?>
<!-- Generator: Adobe Illustrator 20.1.0, SVG Export Plug-In . SVG Version: 6.00 Build 0)  -->
<svg version="1.1" id="Layer_1" xmlns="http://www.w3.org/2000/svg" xmlns:xlink="http://www.w3.org/1999/xlink" x="0px" y="0px"
	 viewBox="0 0 46 38" style="enable-background:new 0 0 46 38;" xml:space="preserve">
<style type="text/css">
	.st0{fill:#CCCCCB;}
	.st1{fill:#010101;}
</style>
<path class="st0" d="M1.6,31.6c0,0,0.4,4.6,3.4,4.6l36.1-0.1c0,0,2.9,0,2.9-3.6L43.8,8.8c0,0-0.4-2.7-3.1-2.7h-6.8l-2.2-1.2
	l-2.4-2.4l-3.4-0.4l-8.2,0.1l-3,2.1L13,5.8H9L3.5,6.2L2,7.8L1.6,31.6z"/>
<g id="_x37_14-camera-toolbar_x40_2x.png">
	<g>
		<path class="st1" d="M23,13c-3.3,0-6,2.7-6,6c0,3.3,2.7,6,6,6s6-2.7,6-6C29,15.7,26.3,13,23,13z M23,23c-2.2,0-4-1.8-4-4
			c0-2.2,1.8-4,4-4s4,1.8,4,4C27,21.2,25.2,23,23,23z M39,10c-1.1,0-2,0.9-2,2c0,1.1,0.9,2,2,2s2-0.9,2-2C41,10.9,40.1,10,39,10z
			 M23,9c-5.5,0-10,4.5-10,10c0,5.5,4.5,10,10,10s10-4.5,10-10C33,13.5,28.5,9,23,9z M23,27c-4.4,0-8-3.6-8-8c0-4.4,3.6-8,8-8
			s8,3.6,8,8C31,23.4,27.4,27,23,27z M41,5h-7c-2,0-4-4-6-4c-0.7,0-1.3,0-2,0c0,0-2.8,0-6,0c-0.7,0-1.3,0-2,0c-2,0-4,4-6,4H5
			C2.8,5,1,6.8,1,9v24c0,2.2,1.8,4,4,4h36c2.2,0,4-1.8,4-4V9C45,6.8,43.2,5,41,5z M43,33c0,1.1-0.9,2-2,2H5c-1.1,0-2-0.9-2-2V9
			c0-1.1,0.9-2,2-2h7c3,0,5-4,6-4c0.6,0,1.3,0,2,0c0,0,5,0,8,0c1,0,3,4,6,4h7c1.1,0,2,0.9,2,2V33z"/>
	</g>
</g>
</svg>
